<?xml version="1.0" encoding="UTF-8"?>
<svg width="63px" height="22px" viewBox="0 0 63 22" version="1.1" xmlns="http://www.w3.org/2000/svg" xmlns:xlink="http://www.w3.org/1999/xlink">
    <!-- Generator: Sketch 58 (84663) - https://sketch.com -->
    <title>logo</title>
    <desc>Created with Sketch.</desc>
    <g id="logo" stroke="none" stroke-width="1" fill="none" fill-rule="evenodd">
        <path d="M5.408,9.904 C5.408,10.228 5.156,10.516 4.832,10.552 L2.456,10.804 L2.456,2.776 L4.76,2.776 C5.12,2.776 5.408,3.064 5.408,3.424 L5.408,9.904 Z M0.44,22 L2.456,22 L2.456,12.82 L5.048,12.532 C6.38,12.388 7.424,11.272 7.424,9.904 L7.424,3.424 C7.424,1.984 6.236,0.76 4.76,0.76 L0.44,0.76 L0.44,22 Z M14.624,0.76 L12.968,0.76 C11.492,0.76 10.304,1.984 10.304,3.424 L10.304,19.336 C10.304,20.812 11.492,22 12.968,22 L14.624,22 C16.1,22 17.288,20.812 17.288,19.336 L17.288,3.424 C17.288,1.984 16.1,0.76 14.624,0.76 Z M15.272,19.336 C15.272,19.696 14.984,19.984 14.624,19.984 L12.968,19.984 C12.608,19.984 12.32,19.696 12.32,19.336 L12.32,3.424 C12.32,3.064 12.608,2.776 12.968,2.776 L14.624,2.776 C14.984,2.776 15.272,3.064 15.272,3.424 L15.272,19.336 Z M22.184,22 L22.184,0.76 L20.168,0.76 L20.168,22 L22.184,22 Z M31.148,15.448 C28.484,11.524 27.08,6.88 27.08,2.092 L27.08,0.76 L25.064,0.76 L25.064,22 L27.08,22 L27.08,12.1 C28.052,14.512 29.42,16.744 31.148,18.796 L31.148,22 L33.128,22 L33.128,0.76 L31.148,0.76 L31.148,15.448 Z M35.684,2.776 L38.816,2.776 L38.816,22 L40.796,22 L40.796,2.776 L43.928,2.776 L43.928,0.76 L35.684,0.76 L35.684,2.776 Z M48.464,19.336 L48.464,11.416 L51.812,11.02 L51.812,9.004 L48.464,9.4 L48.464,2.776 L52.424,2.776 L52.424,0.76 L46.448,0.76 L46.448,19.336 C46.448,20.812 47.636,22 49.112,22 L52.424,22 L52.424,19.984 L49.112,19.984 C48.752,19.984 48.464,19.696 48.464,19.336 Z M59.624,0.76 L55.304,0.76 L55.304,22 L59.624,22 C61.1,22 62.288,20.812 62.288,19.336 L62.288,3.424 C62.288,1.984 61.1,0.76 59.624,0.76 Z M60.272,19.336 C60.272,19.696 59.984,19.984 59.624,19.984 L57.32,19.984 L57.32,2.776 L59.624,2.776 C59.984,2.776 60.272,3.064 60.272,3.424 L60.272,19.336 Z" id="pointed" fill="#0B233F" fill-rule="nonzero"></path>
    </g>
</svg>