<?xml version="1.0" encoding="UTF-8"?>
<svg width="68px" height="22px" viewBox="0 0 68 22" version="1.1" xmlns="http://www.w3.org/2000/svg" xmlns:xlink="http://www.w3.org/1999/xlink">
    <!-- Generator: Sketch 58 (84663) - https://sketch.com -->
    <title>logo</title>
    <desc>Created with Sketch.</desc>
    <g id="logo" stroke="none" stroke-width="1" fill="none" fill-rule="evenodd">
        <path d="M5.98020955,10.040678 C5.98020955,10.3610169 5.72759022,10.6457627 5.40279395,10.6813559 L3.0209546,10.9305085 L3.0209546,2.99322034 L5.330617,2.99322034 C5.69150175,2.99322034 5.98020955,3.2779661 5.98020955,3.63389831 L5.98020955,10.040678 Z M1,22 L3.0209546,22 L3.0209546,12.9237288 L5.6193248,12.6389831 C6.95459837,12.4966102 8.00116414,11.3932203 8.00116414,10.040678 L8.00116414,3.63389831 C8.00116414,2.21016949 6.81024447,1 5.330617,1 L1,1 L1,22 Z M16.2188591,1 L14.5587893,1 C13.0791618,1 11.8882421,2.21016949 11.8882421,3.63389831 L11.8882421,19.3661017 C11.8882421,20.8254237 13.0791618,22 14.5587893,22 L16.2188591,22 C17.6984866,22 18.8894063,20.8254237 18.8894063,19.3661017 L18.8894063,3.63389831 C18.8894063,2.21016949 17.6984866,1 16.2188591,1 Z M16.8684517,19.3661017 C16.8684517,19.7220339 16.5797439,20.0067797 16.2188591,20.0067797 L14.5587893,20.0067797 C14.1979045,20.0067797 13.9091967,19.7220339 13.9091967,19.3661017 L13.9091967,3.63389831 C13.9091967,3.2779661 14.1979045,2.99322034 14.5587893,2.99322034 L16.2188591,2.99322034 C16.5797439,2.99322034 16.8684517,3.2779661 16.8684517,3.63389831 L16.8684517,19.3661017 Z M24.7974389,22 L24.7974389,1 L22.7764843,1 L22.7764843,22 L24.7974389,22 Z M34.7834692,15.5220339 C32.112922,11.6423729 30.7054715,7.05084746 30.7054715,2.31694915 L30.7054715,1 L28.6845169,1 L28.6845169,22 L30.7054715,22 L30.7054715,12.2118644 C31.6798603,14.5966102 33.0512224,16.8033898 34.7834692,18.8322034 L34.7834692,22 L36.7683353,22 L36.7683353,1 L34.7834692,1 L34.7834692,15.5220339 Z M39.330617,2.99322034 L42.4703143,2.99322034 L42.4703143,22 L44.4551804,22 L44.4551804,2.99322034 L47.5948778,2.99322034 L47.5948778,1 L39.330617,1 L39.330617,2.99322034 Z M53.1420256,19.3661017 L53.1420256,11.5355932 L56.4982538,11.1440678 L56.4982538,9.15084746 L53.1420256,9.54237288 L53.1420256,2.99322034 L57.1117579,2.99322034 L57.1117579,1 L51.121071,1 L51.121071,19.3661017 C51.121071,20.8254237 52.3119907,22 53.7916182,22 L57.1117579,22 L57.1117579,20.0067797 L53.7916182,20.0067797 C53.4307334,20.0067797 53.1420256,19.7220339 53.1420256,19.3661017 Z M65.3294529,1 L60.9988359,1 L60.9988359,22 L65.3294529,22 C66.8090803,22 68,20.8254237 68,19.3661017 L68,3.63389831 C68,2.21016949 66.8090803,1 65.3294529,1 Z M65.9790454,19.3661017 C65.9790454,19.7220339 65.6903376,20.0067797 65.3294529,20.0067797 L63.0197905,20.0067797 L63.0197905,2.99322034 L65.3294529,2.99322034 C65.6903376,2.99322034 65.9790454,3.2779661 65.9790454,3.63389831 L65.9790454,19.3661017 Z" id="pointed" fill="#0B233F" fill-rule="nonzero"></path>
    </g>
</svg>